<svg width="48" height="48" viewBox="0 0 48 48" fill="none" xmlns="http://www.w3.org/2000/svg">
<g clip-path="url(#clip0_68_8)">
<path d="M22.9967 28.6099C22.9967 28.4484 22.9967 28.3331 22.9967 28.2177C22.9967 23.1885 22.9967 18.1671 22.9967 13.1379C22.9967 13.0149 22.9884 12.8842 23.0133 12.7611C23.0966 12.292 23.563 11.9691 24.0627 11.9998C24.5541 12.0306 24.9622 12.4074 24.9955 12.8611C25.0038 12.9687 24.9955 13.0687 24.9955 13.1764C24.9955 18.1901 24.9955 23.2116 24.9955 28.2254C24.9955 28.3407 24.9955 28.4561 24.9955 28.6022C25.1287 28.6022 25.237 28.6022 25.3453 28.6022C26.8444 28.6022 28.3435 28.6099 29.8426 28.6022C30.3257 28.6022 30.7004 28.7483 30.9086 29.1636C31.1002 29.548 30.9919 29.9095 30.5922 30.2786C28.6683 32.0626 26.7361 33.839 24.8039 35.623C24.2626 36.1229 23.7213 36.1152 23.1799 35.6153C21.2561 33.839 19.3405 32.0703 17.4167 30.294C17.0669 29.971 16.8837 29.6173 17.0835 29.1789C17.2834 28.7406 17.6749 28.5945 18.1662 28.6022C19.657 28.6099 21.1395 28.6022 22.6302 28.6022C22.7468 28.6099 22.8551 28.6099 22.9967 28.6099ZM23.9461 33.6621C25.1121 32.5855 26.2781 31.509 27.3941 30.4785C25.1537 30.4785 22.8218 30.4785 20.5065 30.4785C21.6725 31.5551 22.8384 32.6317 23.9461 33.6621Z" fill="white"/>
</g>
<rect x="1" y="1" width="46" height="46" stroke="white" stroke-width="2"/>
<defs>
<clipPath id="clip0_68_8">
<rect width="14" height="24" fill="white" transform="translate(17 12)"/>
</clipPath>
</defs>
</svg>
