<svg width="16" height="13" viewBox="0 0 16 13" fill="none" xmlns="http://www.w3.org/2000/svg">
<g clip-path="url(#clip0_103_33)">
<path d="M0 11.6173C0 8.96035 0 6.30794 0 3.651C0.025 3.66004 0.05 3.66908 0.0708333 3.68263C2.23333 5.24607 4.39167 6.80498 6.55417 8.36842C7.52083 9.0688 8.48333 9.0688 9.45417 8.36842C11.3875 6.97217 13.3167 5.57592 15.2458 4.17968C15.4958 3.99893 15.75 3.82271 16.0042 3.64648C16.0042 6.2989 16.0042 8.95583 16.0042 11.6128C16 11.6218 15.9875 11.6308 15.9875 11.6399C15.775 12.5572 15.2625 12.9955 14.3875 12.9955C12.2375 12.9955 10.0875 12.9955 7.9375 12.9955C5.8125 12.9955 3.6875 12.9955 1.5625 12.9955C1.1375 12.9955 0.766667 12.8599 0.454167 12.5391C0.2 12.2906 0.075 11.9697 0 11.6173Z" fill="white"/>
<path d="M0 1.82551C0 1.6764 0 1.5318 0 1.38269C0.025 1.2878 0.05 1.18839 0.0791667 1.0935C0.291667 0.406674 0.845833 0 1.57083 0C5.85833 0 10.1417 0 14.4292 0C14.475 0 14.525 0 14.5708 0.0045186C15.2083 0.0406674 15.7292 0.460897 15.925 1.09802C15.9542 1.19291 15.975 1.29232 16.0042 1.38721C16.0042 1.53632 16.0042 1.68092 16.0042 1.83003C15.9042 2.27737 15.7 2.6479 15.3375 2.90998C13.1792 4.46437 11.025 6.02781 8.86667 7.5822C8.29167 7.99791 7.70417 7.98888 7.12917 7.57317C4.97083 6.00973 2.82083 4.45534 0.670833 2.90094C0.329167 2.65242 0.104167 2.32256 0.025 1.88425C0.0208333 1.86166 0.00833333 1.84359 0 1.82551Z" fill="white"/>
</g>
<defs>
<clipPath id="clip0_103_33">
<rect width="16" height="13" fill="white"/>
</clipPath>
</defs>
</svg>
