<svg width="10" height="17" viewBox="0 0 10 17" fill="none" xmlns="http://www.w3.org/2000/svg">
<path d="M3.14301 9.46744C3.08468 9.46744 1.80128 9.46744 1.21792 9.46744C0.906797 9.46744 0.80957 9.35301 0.80957 9.06694C0.80957 8.30408 0.80957 7.52215 0.80957 6.75929C0.80957 6.45415 0.926243 6.35879 1.21792 6.35879H3.14301C3.14301 6.30158 3.14301 5.19543 3.14301 4.6805C3.14301 3.91764 3.27913 3.19293 3.66804 2.52543C4.07639 1.83886 4.65975 1.38114 5.39868 1.11414C5.88481 0.942497 6.37095 0.866211 6.89597 0.866211H8.80162C9.07385 0.866211 9.19052 0.98064 9.19052 1.24764V3.42179C9.19052 3.68879 9.07385 3.80322 8.80162 3.80322C8.27659 3.80322 7.75157 3.80322 7.22654 3.82229C6.70152 3.82229 6.42928 4.07022 6.42928 4.60422C6.40984 5.17636 6.42928 5.72943 6.42928 6.32065H8.68494C8.99607 6.32065 9.11274 6.43508 9.11274 6.74022V9.04787C9.11274 9.35301 9.01552 9.44837 8.68494 9.44837C7.98491 9.44837 6.48762 9.44837 6.42928 9.44837V15.6657C6.42928 15.9899 6.33205 16.1043 5.98204 16.1043C5.16533 16.1043 4.36807 16.1043 3.55137 16.1043C3.25969 16.1043 3.14301 15.9899 3.14301 15.7038C3.14301 13.7013 3.14301 9.52465 3.14301 9.46744Z" fill="white"/>
</svg>
