<svg width="430" height="738" viewBox="0 0 430 738" fill="none" xmlns="http://www.w3.org/2000/svg">
<g clip-path="url(#clip0_310_125)">
<path d="M342.749 90.1987C328.163 100.719 315.42 113.585 305.039 128.275L58.8805 467.661C51.5952 477.746 41.881 476.607 28.7855 475.075C6.06357 472.556 -27.1279 469.594 -37.5897 468.163C-54.0581 466.001 -79.2345 487.747 -61.265 500.829L33.7797 569.927C64.9202 592.49 131.349 544.466 222.903 418.225C230.677 407.482 240.678 393.281 249.436 381.187L314.232 565.486C319.534 583.941 326.278 586.099 330.241 580.684L343.855 561.965C350.871 552.267 355.477 529.973 353.811 511.852L331.653 266.738C396.77 173.542 454.239 84.5877 440.406 74.5616C424.055 62.63 382.506 62.0324 342.749 90.1987ZM25.4022 303.276C17.2974 307.781 10.8352 312.526 7.32062 317.364L-6.30569 336.062C-10.2215 341.508 -5.92921 347.138 13.2769 346.475L113.061 348.606L173.948 264.571L51.8068 292.577C42.5637 294.937 33.6725 298.522 25.4022 303.276ZM37829.7 20928.7L37854.8 20972.1L38419 20646.3L38394 20602.9L37829.7 20928.7ZM37979.2 20987.1L38004.3 21030.6L38394.9 20805.1L38369.9 20761.6L37979.2 20987.1ZM37955.1 21145.9L37980.2 21189.3L38544.4 20863.5L38519.4 20820.1L37955.1 21145.9ZM38104.6 21204.3L38129.7 21247.8L38520.3 21022.2L38495.3 20978.8L38104.6 21204.3ZM38080.5 21363.1L38105.6 21406.5L38669.8 21080.7L38644.8 21037.3L38080.5 21363.1Z" fill="white" fill-opacity="0.04"/>
</g>
<defs>
<clipPath id="clip0_310_125">
<rect width="651.528" height="475.365" fill="white" transform="translate(-168.103 326.321) rotate(-30)"/>
</clipPath>
</defs>
</svg>
