<svg width="33" height="33" viewBox="0 0 33 33" fill="none" xmlns="http://www.w3.org/2000/svg">
<g clip-path="url(#clip0_273_6)">
<path d="M27.6652 3.08109C26.7864 3.1703 25.9284 3.40444 25.1261 3.77401L6.32122 12.158C5.76368 12.4079 5.37845 12.1211 4.85907 11.7346C3.95445 11.07 2.61537 10.1297 2.20553 9.81216C1.55814 9.31616 -0.0467798 9.62262 0.396297 10.6195L2.74214 15.8885C3.51261 17.6115 7.51753 17.2005 14.512 14.0817C15.1065 13.8159 15.8806 13.4577 16.5501 13.1586L14.7803 22.5814C14.5526 23.4959 14.7865 23.7531 15.088 23.6202L16.1268 23.1586C16.6634 22.9186 17.4068 22.0842 17.7809 21.2731L22.8578 10.3119C27.9163 7.94878 32.5452 5.57832 32.2031 4.81278C31.8006 3.90447 30.048 2.85955 27.6652 3.08109ZM8.93414 4.35001C8.47876 4.34262 8.08737 4.3857 7.81907 4.50509L6.7803 4.96539C6.47999 5.10078 6.5243 5.44539 7.35753 5.88847L11.5495 8.42755L16.2031 6.35001L10.32 4.54324C9.86888 4.41673 9.40266 4.35091 8.93414 4.35001ZM1.28122 30.1199C0.9548 30.1504 0.653873 30.3093 0.44464 30.5617C0.235407 30.8141 0.135008 31.1393 0.165528 31.4657C0.196048 31.7921 0.354988 32.0931 0.607384 32.3023C0.859779 32.5115 1.18495 32.6119 1.51137 32.5814H31.0498C31.3763 32.5814 31.6893 32.4517 31.9201 32.2209C32.1509 31.9901 32.2806 31.677 32.2806 31.3506C32.2806 31.0242 32.1509 30.7112 31.9201 30.4803C31.6893 30.2495 31.3763 30.1199 31.0498 30.1199H1.51137C1.47283 30.118 1.43422 30.118 1.39568 30.1199C1.35714 30.118 1.31853 30.118 1.27999 30.1199H1.28122ZM1110.43 1808.58V1811.04H1142.43V1808.58H1110.43ZM1115.36 1814.74V1817.2H1137.51V1814.74H1115.36ZM1110.43 1820.89V1823.35H1142.43V1820.89H1110.43ZM1115.36 1827.04V1829.5H1137.51V1827.04H1115.36ZM1110.43 1833.2V1835.66H1142.43V1833.2H1110.43Z" fill="white"/>
</g>
<defs>
<clipPath id="clip0_273_6">
<rect width="32" height="32" fill="white" transform="translate(0.280273 0.581543)"/>
</clipPath>
</defs>
</svg>
