<svg width="1428" height="937" viewBox="0 0 1428 937" fill="none" xmlns="http://www.w3.org/2000/svg">
<path d="M1226.95 2.19127C1187.54 6.19516 1149.07 16.7035 1113.09 33.2897L269.804 409.564C244.802 420.777 227.527 407.906 204.236 390.562C163.669 360.734 103.62 318.533 85.241 304.282C56.2099 282.022 -15.7609 295.776 4.10832 340.517L109.305 576.987C143.855 654.318 323.451 635.869 637.109 495.899C663.767 483.968 698.483 467.894 728.508 454.471L649.141 877.365C638.93 918.406 649.417 929.951 662.939 923.985L709.521 903.271C733.585 892.5 766.921 855.049 783.7 818.648L1011.37 326.708C1238.21 220.653 1445.79 114.267 1430.44 79.9096C1412.4 39.1448 1333.8 -7.75138 1226.95 2.19127ZM386.977 59.1405C366.556 58.8091 349.005 60.7424 336.973 66.1004L290.391 86.759C276.924 92.8351 278.911 108.301 316.276 128.187L504.261 242.14L712.943 148.901L449.124 67.8127C428.894 62.1351 407.987 59.181 386.977 59.1405ZM49782.4 81033V81143.5H51217.4V81033H49782.4ZM50003.2 81309.2V81419.7H50996.6V81309.2H50003.2ZM49782.4 81585.4V81695.9H51217.4V81585.4H49782.4ZM50003.2 81861.6V81972.1H50996.6V81861.6H50003.2ZM49782.4 82137.8V82248.3H51217.4V82137.8H49782.4Z" fill="white" fill-opacity="0.025"/>
</svg>
