<svg width="16" height="15" viewBox="0 0 16 15" fill="none" xmlns="http://www.w3.org/2000/svg">
<path d="M8.57155 11.3971C8.31441 11.6615 8.05727 11.9209 7.80488 12.1854C7.40488 12.5945 7.00489 13.0036 6.60965 13.4177C6.49536 13.5375 6.38108 13.6223 6.21441 13.5425C6.05727 13.4626 6.05727 13.313 6.06679 13.1583C6.14298 12.0457 6.21441 10.9331 6.29536 9.82044C6.30012 9.73562 6.36203 9.63583 6.42869 9.57596C7.73822 8.30369 9.0525 7.04139 10.3668 5.77411C11.1811 4.99079 11.9954 4.20247 12.8096 3.41915C12.8477 3.37924 12.9001 3.3493 12.9192 3.29941C12.9382 3.2595 12.9477 3.17468 12.9287 3.15472C12.8954 3.11979 12.8287 3.10982 12.7763 3.11481C12.7335 3.11979 12.6954 3.15971 12.6525 3.18466C9.83346 4.9858 7.00965 6.79193 4.1906 8.60304C4.08108 8.67289 3.98584 8.68786 3.86203 8.64296C2.72869 8.23384 1.5906 7.8297 0.457266 7.42557C0.147742 7.3158 0.00488491 7.14617 0.000123007 6.88173C-0.0046389 6.62229 0.128694 6.44766 0.428694 6.32792C4.30488 4.77126 8.18108 3.21459 12.062 1.65793C12.9811 1.28872 13.9049 0.919509 14.8239 0.550301C15.1477 0.420579 15.4477 0.475461 15.7049 0.714948C15.9573 0.949445 16.0477 1.24381 15.9763 1.59307C15.8954 1.97724 15.8192 2.36142 15.7382 2.74061C14.9668 6.40775 14.1954 10.0649 13.4287 13.7271C13.4144 13.8019 13.4001 13.8718 13.3811 13.9466C13.2382 14.4655 12.6954 14.6551 12.2716 14.3208C11.6573 13.8418 11.0477 13.3529 10.4335 12.8639C9.86203 12.4149 9.29536 11.9608 8.72393 11.5118C8.67631 11.4719 8.62869 11.442 8.57155 11.3971Z" fill="white"/>
</svg>
