<svg width="72" height="87" viewBox="0 0 72 87" fill="none" xmlns="http://www.w3.org/2000/svg">
<path d="M20.2334 15.6121L21.3088 11.5879C8.75071 8.22292 0.598373 16.6875 0.251465 17.0344L3.26957 19.8791C3.54709 19.6015 10.1037 12.9062 20.2334 15.6121Z" fill="url(#paint0_linear_345_310)"/>
<path d="M44.7246 52.0028L45.6959 47.944C45.4878 47.8746 40.2148 46.6604 33.5194 47.2154C30.2585 47.493 19.5737 48.7765 19.5737 54.1189C19.5737 54.8474 19.5737 55.6106 24.0488 62.2366C26.3731 65.671 29.1137 69.5217 30.9176 71.9847C32.7909 74.5518 34.7683 75.8354 36.8151 75.8354C36.9191 75.8354 37.0579 75.8354 37.162 75.8354C39.2434 75.6966 40.7698 74.1702 41.4983 72.8173C41.6371 72.5745 41.984 71.95 42.4697 71.0134C45.1408 66.122 51.4546 54.6393 53.6054 49.8866C54.8196 47.2154 54.3686 45.2728 53.7789 44.0933C52.7728 42.1159 50.6567 40.7976 47.4998 40.1038H47.4651C45.0715 39.5835 30.4666 38.5774 20.8573 42.4975L22.4184 46.3482C30.987 42.8791 44.7593 43.7811 46.5979 44.1973H46.6326C49.0956 44.7177 49.8588 45.5503 50.0669 46.0013C50.3098 46.5216 50.2404 47.2501 49.8241 48.1868C47.7427 52.8007 41.2902 64.5956 38.8271 69.036C38.3068 69.9726 37.9599 70.6318 37.8211 70.8746C37.6476 71.1868 37.266 71.6725 36.8497 71.7072C36.3641 71.7419 35.4274 71.1868 34.2479 69.5564C29.3218 62.861 24.812 56.1657 23.8407 54.1883C24.5692 53.4598 27.622 51.9334 33.8316 51.413C39.8678 50.858 44.6899 51.9681 44.7246 52.0028Z" fill="url(#paint1_linear_345_310)"/>
<path d="M16.7979 4.40691C23.9442 4.19876 30.9517 6.62712 31.1599 8.67389L31.1945 8.84734C31.2292 9.09018 31.3333 10.6166 30.362 13.6347C29.1478 17.416 25.644 21.8217 25.6093 21.8911L25.5746 21.9258C25.0543 22.6196 24.5686 23.2094 24.1523 23.7644C22.0709 26.4356 20.7873 28.0314 21.377 31.0148C21.5158 31.8127 22.1056 33.8248 24.2564 35.3512C25.9909 36.6 28.2805 37.2245 31.1599 37.2245C32.0965 37.2245 33.0678 37.1551 34.0739 37.0163C34.178 37.0163 36.9185 36.6694 39 36.2878L38.2368 32.1943C36.2594 32.5412 33.5882 32.8881 33.5535 32.8881C28.1071 33.5819 25.8175 31.9515 25.4706 30.2169C25.2624 29.1762 25.4359 28.864 27.4132 26.3315C27.8295 25.7765 28.3152 25.1867 28.8703 24.4582C29.1825 24.0419 32.8944 19.324 34.3167 14.9182C35.6003 10.9288 35.3921 8.77796 35.2881 8.15352C34.4902 1.8051 22.4178 0.0705514 16.6591 0.244006C6.87629 0.521533 0.701332 4.54567 0.458496 4.71913L2.74809 8.18821C2.81747 8.15352 8.26393 4.64975 16.7979 4.40691Z" fill="url(#paint2_linear_345_310)"/>
<path d="M56.9701 25.8809C54.3682 25.8809 42.3999 26.7481 41.8796 26.7828L42.1918 30.9457C46.4587 30.6335 55.0274 30.0438 56.9701 30.0438C60.8554 30.0438 63.3532 31.4314 64.602 34.3107C65.6428 36.7391 64.602 40.2429 60.682 47.181C60.0575 48.2565 58.9474 50.442 57.421 53.4254C54.056 59.9473 48.9912 69.8342 44.412 77.6396C41.8449 81.976 40.4572 82.3923 39.0349 82.7392C37.4044 82.9126 34.4557 83.1902 30.5357 78.0906C27.24 73.7889 21.5507 66.0876 16.4165 58.9066C11.8026 52.4194 7.53565 46.3485 6.32147 42.9488C5.00322 39.2368 4.3441 34.4495 8.81921 32.6109C12.4964 31.1192 16.0349 30.8417 16.0696 30.8417L15.7921 26.6788C15.6186 26.6788 11.5945 26.991 7.25813 28.7602C1.56884 31.0845 -0.235088 36.9126 2.4361 44.3364C3.82374 48.2565 7.91725 54.0845 13.0862 61.3349C18.2551 68.5506 23.9444 76.3214 27.3094 80.623C31.5417 86.1389 35.5658 86.9715 38.0289 86.9715C38.688 86.9715 39.2431 86.9021 39.6593 86.8674H39.7287C39.7981 86.8674 39.9022 86.8327 39.9716 86.8327C42.955 86.1389 45.1405 84.7859 48.1239 79.7558C52.7725 71.8809 57.872 61.9247 61.2717 55.3334C62.7287 52.4887 63.8735 50.2338 64.4633 49.2278C68.4874 42.0815 70.4648 37.086 68.5915 32.6803C67.0998 29.5581 64.047 25.8809 56.9701 25.8809Z" fill="url(#paint3_linear_345_310)"/>
<path d="M50.4486 1.21535C45.3838 2.91521 42.5738 5.75986 42.4351 5.89862L45.4185 8.81265C45.8001 8.43105 54.8197 -0.380424 69.8755 7.21687L71.7488 3.50495C62.4863 -1.17831 55.0625 -0.311043 50.4486 1.21535Z" fill="url(#paint4_linear_345_310)"/>
<path d="M66.1292 19.1155L68.8004 15.9239C59.7808 8.43069 47.639 11.5876 47.1187 11.7263L48.1941 15.7505C48.2634 15.7158 58.7748 13.0099 66.1292 19.1155Z" fill="url(#paint5_linear_345_310)"/>
<defs>
<linearGradient id="paint0_linear_345_310" x1="35.9942" y1="86.9504" x2="35.9942" y2="0.00965048" gradientUnits="userSpaceOnUse">
<stop stop-color="#FAD649"/>
<stop offset="0.25" stop-color="#EF8031"/>
<stop offset="0.5" stop-color="#EB356A"/>
<stop offset="0.75" stop-color="#C131BF"/>
<stop offset="1" stop-color="#6B46F1"/>
</linearGradient>
<linearGradient id="paint1_linear_345_310" x1="35.9937" y1="86.9504" x2="35.9937" y2="0.00964253" gradientUnits="userSpaceOnUse">
<stop stop-color="#FAD649"/>
<stop offset="0.25" stop-color="#EF8031"/>
<stop offset="0.5" stop-color="#EB356A"/>
<stop offset="0.75" stop-color="#C131BF"/>
<stop offset="1" stop-color="#6B46F1"/>
</linearGradient>
<linearGradient id="paint2_linear_345_310" x1="35.9931" y1="86.9504" x2="35.9931" y2="0.00963414" gradientUnits="userSpaceOnUse">
<stop stop-color="#FAD649"/>
<stop offset="0.25" stop-color="#EF8031"/>
<stop offset="0.5" stop-color="#EB356A"/>
<stop offset="0.75" stop-color="#C131BF"/>
<stop offset="1" stop-color="#6B46F1"/>
</linearGradient>
<linearGradient id="paint3_linear_345_310" x1="35.9933" y1="86.9507" x2="35.9933" y2="0.00993816" gradientUnits="userSpaceOnUse">
<stop stop-color="#FAD649"/>
<stop offset="0.25" stop-color="#EF8031"/>
<stop offset="0.5" stop-color="#EB356A"/>
<stop offset="0.75" stop-color="#C131BF"/>
<stop offset="1" stop-color="#6B46F1"/>
</linearGradient>
<linearGradient id="paint4_linear_345_310" x1="35.9938" y1="86.9504" x2="35.9938" y2="0.00963866" gradientUnits="userSpaceOnUse">
<stop stop-color="#FAD649"/>
<stop offset="0.25" stop-color="#EF8031"/>
<stop offset="0.5" stop-color="#EB356A"/>
<stop offset="0.75" stop-color="#C131BF"/>
<stop offset="1" stop-color="#6B46F1"/>
</linearGradient>
<linearGradient id="paint5_linear_345_310" x1="35.9941" y1="86.9501" x2="35.9941" y2="0.00927352" gradientUnits="userSpaceOnUse">
<stop stop-color="#FAD649"/>
<stop offset="0.25" stop-color="#EF8031"/>
<stop offset="0.5" stop-color="#EB356A"/>
<stop offset="0.75" stop-color="#C131BF"/>
<stop offset="1" stop-color="#6B46F1"/>
</linearGradient>
</defs>
</svg>
