<svg width="229" height="277" viewBox="0 0 229 277" fill="none" xmlns="http://www.w3.org/2000/svg">
<path d="M64.5772 50.155L68.0066 37.3846C27.9599 26.7058 1.96271 53.5678 0.856445 54.6687L10.4809 63.6961C11.3659 62.8154 32.2743 41.568 64.5772 50.155Z" fill="url(#paint0_linear_13_40)"/>
<path d="M142.679 165.639L145.777 152.759C145.113 152.539 128.298 148.686 106.947 150.447C96.548 151.328 62.4751 155.401 62.4751 172.355C62.4751 174.667 62.4751 177.089 76.7459 198.116C84.1579 209.015 92.8973 221.235 98.6499 229.051C104.624 237.198 110.929 241.271 117.456 241.271C117.788 241.271 118.231 241.271 118.563 241.271C125.2 240.831 130.068 235.987 132.391 231.694C132.833 230.923 133.94 228.941 135.488 225.969C144.007 210.446 164.141 174.006 171 158.924C174.871 150.447 173.433 144.282 171.553 140.539C168.344 134.264 161.596 130.08 151.529 127.879H151.419C143.785 126.227 97.2118 123.035 66.5683 135.475L71.5465 147.695C98.8712 136.686 142.79 139.548 148.653 140.869H148.764C156.618 142.521 159.052 145.163 159.716 146.594C160.49 148.245 160.269 150.557 158.941 153.53C152.304 168.172 131.727 205.602 123.873 219.694C122.213 222.666 121.107 224.758 120.665 225.529C120.111 226.519 118.895 228.061 117.567 228.171C116.018 228.281 113.031 226.519 109.27 221.345C93.5611 200.098 79.1797 178.85 76.0821 172.575C78.4053 170.263 88.1404 165.419 107.943 163.768C127.191 162.007 142.569 165.529 142.679 165.639Z" fill="url(#paint1_linear_13_40)"/>
<path d="M53.624 14.5955C76.4131 13.9349 98.7596 21.6413 99.4233 28.1366L99.534 28.687C99.6446 29.4577 99.9764 34.3016 96.8789 43.8795C93.007 55.8793 81.8337 69.8608 81.7231 70.0809L81.6125 70.191C79.9531 72.3928 78.4043 74.2644 77.0768 76.0258C70.4392 84.5028 66.3461 89.5669 68.2267 99.0347C68.6692 101.567 70.5499 107.952 77.4087 112.796C82.94 116.759 90.2413 118.741 99.4233 118.741C102.41 118.741 105.508 118.521 108.716 118.08C109.048 118.08 117.787 116.979 124.425 115.768L121.991 102.778C115.685 103.879 107.167 104.98 107.057 104.98C89.6882 107.181 82.3869 102.007 81.2806 96.5026C80.6169 93.1999 81.17 92.2091 87.4757 84.1725C88.8032 82.4111 90.352 80.5395 92.122 78.2276C93.1176 76.9065 104.955 61.9343 109.49 47.9528C113.583 35.2924 112.92 28.4669 112.588 26.4852C110.043 6.33872 71.5455 0.83421 53.1815 1.38466C21.9849 2.26538 2.29343 15.0358 1.51904 15.5863L8.82038 26.5953C9.04163 26.4852 26.41 15.3661 53.624 14.5955Z" fill="url(#paint2_linear_13_40)"/>
<path d="M181.731 82.7415C173.434 82.7415 135.268 85.4937 133.608 85.6038L134.604 98.8146C148.211 97.8238 175.536 95.9523 181.731 95.9523C194.121 95.9523 202.086 100.356 206.069 109.493C209.387 117.2 206.069 128.319 193.568 150.337C191.577 153.75 188.037 160.685 183.169 170.153C172.438 190.85 156.287 222.226 141.684 246.996C133.498 260.757 129.073 262.078 124.537 263.179C119.338 263.73 109.934 264.61 97.4337 248.427C86.9242 234.776 68.7814 210.336 52.4087 187.547C37.6954 166.96 24.0884 147.695 20.2165 136.906C16.0127 125.126 13.9108 109.934 28.1816 104.099C39.908 99.3651 51.1919 98.4844 51.3025 98.4844L50.4175 85.2735C49.8643 85.2735 37.0317 86.2643 23.2034 91.8789C5.06069 99.255 -0.691878 117.75 7.82635 141.309C12.2514 153.75 25.3053 172.245 41.7886 195.254C58.2719 218.152 76.4147 242.813 87.1454 256.464C100.642 273.968 113.474 276.61 121.329 276.61C123.431 276.61 125.201 276.39 126.528 276.28H126.75C126.971 276.28 127.303 276.17 127.524 276.17C137.038 273.968 144.007 269.675 153.521 253.712C168.345 228.721 184.607 197.125 195.449 176.208C200.095 167.181 203.746 160.025 205.626 156.832C218.459 134.154 224.765 118.301 218.791 104.319C214.034 94.411 204.299 82.7415 181.731 82.7415Z" fill="url(#paint3_linear_13_40)"/>
<path d="M160.931 4.46724C144.779 9.86166 135.818 18.8891 135.376 19.3294L144.89 28.577C146.107 27.366 174.87 -0.596912 222.881 23.5128L228.855 11.7332C199.318 -3.12899 175.644 -0.376733 160.931 4.46724Z" fill="url(#paint4_linear_13_40)"/>
<path d="M210.935 61.2735L219.453 51.1452C190.69 27.3657 151.971 37.3839 150.312 37.8243L153.741 50.5947C153.962 50.4846 187.482 41.8976 210.935 61.2735Z" fill="url(#paint5_linear_13_40)"/>
<defs>
<linearGradient id="paint0_linear_13_40" x1="114.837" y1="276.545" x2="114.837" y2="0.641307" gradientUnits="userSpaceOnUse">
<stop stop-color="#FAD649"/>
<stop offset="0.25" stop-color="#EF8031"/>
<stop offset="0.5" stop-color="#EB356A"/>
<stop offset="0.75" stop-color="#C131BF"/>
<stop offset="1" stop-color="#6B46F1"/>
</linearGradient>
<linearGradient id="paint1_linear_13_40" x1="114.837" y1="276.545" x2="114.837" y2="0.641105" gradientUnits="userSpaceOnUse">
<stop stop-color="#FAD649"/>
<stop offset="0.25" stop-color="#EF8031"/>
<stop offset="0.5" stop-color="#EB356A"/>
<stop offset="0.75" stop-color="#C131BF"/>
<stop offset="1" stop-color="#6B46F1"/>
</linearGradient>
<linearGradient id="paint2_linear_13_40" x1="114.836" y1="276.544" x2="114.836" y2="0.640892" gradientUnits="userSpaceOnUse">
<stop stop-color="#FAD649"/>
<stop offset="0.25" stop-color="#EF8031"/>
<stop offset="0.5" stop-color="#EB356A"/>
<stop offset="0.75" stop-color="#C131BF"/>
<stop offset="1" stop-color="#6B46F1"/>
</linearGradient>
<linearGradient id="paint3_linear_13_40" x1="114.838" y1="276.544" x2="114.838" y2="0.641013" gradientUnits="userSpaceOnUse">
<stop stop-color="#FAD649"/>
<stop offset="0.25" stop-color="#EF8031"/>
<stop offset="0.5" stop-color="#EB356A"/>
<stop offset="0.75" stop-color="#C131BF"/>
<stop offset="1" stop-color="#6B46F1"/>
</linearGradient>
<linearGradient id="paint4_linear_13_40" x1="114.835" y1="276.544" x2="114.835" y2="0.640939" gradientUnits="userSpaceOnUse">
<stop stop-color="#FAD649"/>
<stop offset="0.25" stop-color="#EF8031"/>
<stop offset="0.5" stop-color="#EB356A"/>
<stop offset="0.75" stop-color="#C131BF"/>
<stop offset="1" stop-color="#6B46F1"/>
</linearGradient>
<linearGradient id="paint5_linear_13_40" x1="114.836" y1="276.544" x2="114.836" y2="0.640629" gradientUnits="userSpaceOnUse">
<stop stop-color="#FAD649"/>
<stop offset="0.25" stop-color="#EF8031"/>
<stop offset="0.5" stop-color="#EB356A"/>
<stop offset="0.75" stop-color="#C131BF"/>
<stop offset="1" stop-color="#6B46F1"/>
</linearGradient>
</defs>
</svg>
