<svg width="368" height="447" viewBox="0 0 368 447" fill="none" xmlns="http://www.w3.org/2000/svg">
<path d="M103.267 80.5336L108.787 59.8776C44.3262 42.6049 2.47991 86.0538 0.699219 87.8344L16.1912 102.436C17.6158 101.012 51.2709 66.6442 103.267 80.5336Z" fill="url(#paint0_linear_68_34)"/>
<path d="M228.985 267.328L233.971 246.494C232.902 246.138 205.836 239.905 171.469 242.754C154.73 244.179 99.8848 250.767 99.8848 278.19C99.8848 281.93 99.8848 285.847 122.856 319.858C134.786 337.487 148.854 357.253 158.113 369.896C167.729 383.073 177.879 389.661 188.385 389.661C188.919 389.661 189.632 389.661 190.166 389.661C200.85 388.949 208.685 381.114 212.425 374.169C213.137 372.923 214.917 369.718 217.41 364.91C231.122 339.802 263.53 280.861 274.571 256.466C280.803 242.754 278.488 232.783 275.461 226.728C270.297 216.578 259.435 209.812 243.23 206.25H243.052C230.766 203.579 155.799 198.415 106.473 218.537L114.486 238.303C158.47 220.496 229.163 225.126 238.601 227.262H238.779C251.422 229.933 255.339 234.207 256.408 236.522C257.654 239.193 257.298 242.932 255.161 247.74C244.477 271.424 211.356 331.967 198.713 354.76C196.042 359.568 194.261 362.951 193.549 364.197C192.659 365.8 190.7 368.293 188.563 368.471C186.07 368.649 181.262 365.8 175.208 357.431C149.922 323.063 126.773 288.696 121.787 278.546C125.527 274.807 141.197 266.972 173.071 264.301C204.055 261.452 228.807 267.15 228.985 267.328Z" fill="url(#paint1_linear_68_34)"/>
<path d="M85.6382 23.0174C122.32 21.9489 158.29 34.4138 159.359 44.9198L159.537 45.8102C159.715 47.0567 160.249 54.8917 155.263 70.3837C149.031 89.7932 131.046 112.408 130.868 112.764L130.69 112.942C128.019 116.504 125.526 119.531 123.389 122.38C112.705 136.091 106.116 144.282 109.143 159.596C109.856 163.692 112.883 174.02 123.923 181.855C132.827 188.265 144.579 191.471 159.359 191.471C164.167 191.471 169.153 191.114 174.317 190.402C174.851 190.402 188.918 188.621 199.602 186.663L195.685 165.651C185.535 167.431 171.824 169.212 171.646 169.212C143.689 172.773 131.936 164.404 130.156 155.501C129.087 150.159 129.977 148.556 140.127 135.557C142.264 132.708 144.757 129.681 147.606 125.941C149.209 123.804 168.262 99.587 175.563 76.9722C182.152 56.4943 181.083 45.454 180.549 42.2488C176.453 9.66219 114.485 0.758746 84.9259 1.64909C34.7104 3.07364 3.01406 23.7296 1.76758 24.62L13.5202 42.4269C13.8763 42.2488 41.8332 24.2638 85.6382 23.0174Z" fill="url(#paint2_linear_68_34)"/>
<path d="M291.843 133.242C278.488 133.242 217.054 137.694 214.383 137.872L215.986 159.24C237.888 157.638 281.871 154.61 291.843 154.61C311.787 154.61 324.608 161.733 331.018 176.513C336.361 188.978 331.018 206.963 310.897 242.576C307.691 248.096 301.993 259.315 294.158 274.629C276.885 308.106 250.887 358.855 227.382 398.921C214.205 421.179 207.082 423.316 199.781 425.097C191.412 425.987 176.276 427.412 156.155 401.236C139.238 379.155 110.035 339.624 83.6803 302.764C59.9971 269.465 38.0946 238.303 31.8622 220.852C25.0955 201.799 21.7122 177.225 44.6832 167.787C63.5585 160.13 81.7216 158.706 81.8996 158.706L80.4751 137.338C79.5847 137.338 58.9287 138.94 36.6701 148.022C7.4667 159.952 -1.79291 189.868 11.9184 227.975C19.0412 248.097 40.0534 278.012 66.5857 315.228C93.118 352.267 122.321 392.154 139.594 414.235C161.319 442.548 181.975 446.821 194.617 446.821C198.001 446.821 200.85 446.465 202.987 446.287H203.343C203.699 446.287 204.233 446.109 204.589 446.109C219.903 442.548 231.122 435.603 246.436 409.783C270.297 369.361 296.473 318.256 313.924 284.423C321.403 269.821 327.279 258.246 330.306 253.082C350.962 216.4 361.112 190.758 351.496 168.144C343.839 152.117 328.169 133.242 291.843 133.242Z" fill="url(#paint3_linear_68_34)"/>
<path d="M258.364 6.63505C232.366 15.3604 217.943 29.9621 217.23 30.6744L232.544 45.6321C234.503 43.6734 280.801 -1.55612 358.083 37.441L367.699 18.3876C320.154 -5.65171 282.048 -1.19998 258.364 6.63505Z" fill="url(#paint4_linear_68_34)"/>
<path d="M338.851 98.5186L352.563 82.1362C306.265 43.6733 243.941 59.8776 241.27 60.5899L246.79 81.2459C247.146 81.0678 301.101 67.1784 338.851 98.5186Z" fill="url(#paint5_linear_68_34)"/>
<defs>
<linearGradient id="paint0_linear_68_34" x1="184.168" y1="446.715" x2="184.168" y2="0.446054" gradientUnits="userSpaceOnUse">
<stop stop-color="#FAD649"/>
<stop offset="0.25" stop-color="#EF8031"/>
<stop offset="0.5" stop-color="#EB356A"/>
<stop offset="0.75" stop-color="#C131BF"/>
<stop offset="1" stop-color="#6B46F1"/>
</linearGradient>
<linearGradient id="paint1_linear_68_34" x1="184.169" y1="446.715" x2="184.169" y2="0.446072" gradientUnits="userSpaceOnUse">
<stop stop-color="#FAD649"/>
<stop offset="0.25" stop-color="#EF8031"/>
<stop offset="0.5" stop-color="#EB356A"/>
<stop offset="0.75" stop-color="#C131BF"/>
<stop offset="1" stop-color="#6B46F1"/>
</linearGradient>
<linearGradient id="paint2_linear_68_34" x1="184.168" y1="446.715" x2="184.168" y2="0.446056" gradientUnits="userSpaceOnUse">
<stop stop-color="#FAD649"/>
<stop offset="0.25" stop-color="#EF8031"/>
<stop offset="0.5" stop-color="#EB356A"/>
<stop offset="0.75" stop-color="#C131BF"/>
<stop offset="1" stop-color="#6B46F1"/>
</linearGradient>
<linearGradient id="paint3_linear_68_34" x1="184.169" y1="446.715" x2="184.169" y2="0.446101" gradientUnits="userSpaceOnUse">
<stop stop-color="#FAD649"/>
<stop offset="0.25" stop-color="#EF8031"/>
<stop offset="0.5" stop-color="#EB356A"/>
<stop offset="0.75" stop-color="#C131BF"/>
<stop offset="1" stop-color="#6B46F1"/>
</linearGradient>
<linearGradient id="paint4_linear_68_34" x1="184.167" y1="446.715" x2="184.167" y2="0.446082" gradientUnits="userSpaceOnUse">
<stop stop-color="#FAD649"/>
<stop offset="0.25" stop-color="#EF8031"/>
<stop offset="0.5" stop-color="#EB356A"/>
<stop offset="0.75" stop-color="#C131BF"/>
<stop offset="1" stop-color="#6B46F1"/>
</linearGradient>
<linearGradient id="paint5_linear_68_34" x1="184.167" y1="446.715" x2="184.167" y2="0.446053" gradientUnits="userSpaceOnUse">
<stop stop-color="#FAD649"/>
<stop offset="0.25" stop-color="#EF8031"/>
<stop offset="0.5" stop-color="#EB356A"/>
<stop offset="0.75" stop-color="#C131BF"/>
<stop offset="1" stop-color="#6B46F1"/>
</linearGradient>
</defs>
</svg>
