<svg width="14" height="14" viewBox="0 0 14 14" fill="none" xmlns="http://www.w3.org/2000/svg">
<path d="M10.356 0.663086H4.39398C2.45358 0.663086 0.875 2.24167 0.875 4.18207V10.1442C0.875 12.0845 2.45358 13.6631 4.39398 13.6631H10.3561C12.2964 13.6631 13.875 12.0845 13.875 10.1442V4.18207C13.875 2.24167 12.2964 0.663086 10.356 0.663086V0.663086ZM7.375 10.7177C5.41496 10.7177 3.82041 9.12312 3.82041 7.16309C3.82041 5.20305 5.41496 3.6085 7.375 3.6085C9.33504 3.6085 10.9296 5.20305 10.9296 7.16309C10.9296 9.12312 9.33504 10.7177 7.375 10.7177ZM11.0146 4.44678C10.4354 4.44678 9.96425 3.97567 9.96425 3.39645C9.96425 2.81722 10.4354 2.34601 11.0146 2.34601C11.5938 2.34601 12.065 2.81722 12.065 3.39645C12.065 3.97567 11.5938 4.44678 11.0146 4.44678Z" fill="white"/>
</svg>
