<svg width="173" height="66" viewBox="0 0 173 66" fill="none" xmlns="http://www.w3.org/2000/svg">
<path d="M20.097 36.1877C20.5113 36.1877 20.7185 36.1877 21.1329 36.1877C42.8874 36.1877 147.516 36.1877 169.271 36.1877C169.685 36.1877 170.307 36.1877 170.721 35.9814C172.378 35.7751 173.207 34.3306 173 32.6798C172.793 31.2354 171.55 30.2036 170.099 29.9973C169.685 29.9973 169.478 29.9973 169.063 29.9973C147.309 29.9973 42.8874 29.9973 21.1329 29.9973C20.7185 29.9973 20.5113 29.9973 19.8898 29.9973C20.3042 29.7909 20.5113 29.5846 20.9257 29.3782C31.0778 23.6004 39.158 15.7592 45.788 6.26711C46.2024 5.64807 46.6167 5.02902 46.8239 4.40997C47.2383 2.96553 46.4095 1.52108 45.1664 0.902035C43.7161 0.282987 42.2658 0.902035 41.2299 2.14013C39.1581 4.82267 37.2934 7.50521 35.0143 9.9814C27.1413 18.8544 17.8179 25.4576 6.6299 28.9655C5.3868 29.3782 4.14369 29.5846 2.90057 29.9973C1.24309 30.41 0.414337 31.6481 0.414337 33.0925C0.414337 34.537 1.24309 35.7751 2.90057 36.1877C19.2682 40.3147 31.4922 50.2195 41.0227 63.8385C41.8515 65.0766 43.0946 65.6957 44.5449 65.4893C46.6167 65.0766 47.6527 62.6004 46.4095 60.7433C44.7521 58.2671 42.8874 55.7909 41.0227 53.3147C35.2215 46.5052 28.5916 40.9338 20.9257 36.3941C20.3042 36.6004 20.097 36.6004 20.097 36.1877C20.097 36.3941 20.097 36.3941 20.097 36.1877Z" fill="white"/>
</svg>
