<svg width="14" height="17" viewBox="0 0 14 17" fill="none" xmlns="http://www.w3.org/2000/svg">
<path d="M3.19757 16.9998C3.15551 16.8381 3.09661 16.6764 3.07137 16.5106C2.94096 15.5818 2.84421 14.6489 2.9662 13.7201C3.03772 13.1769 3.18075 12.6379 3.31536 12.103C3.63928 10.7886 3.97582 9.47838 4.29974 8.16399C4.32077 8.08106 4.30815 7.9774 4.2787 7.89862C3.93796 6.96984 3.87906 6.04106 4.32498 5.12887C4.60683 4.55667 5.04433 4.14618 5.70058 4.01765C6.5882 3.8435 7.32017 4.40326 7.37065 5.29057C7.39589 5.76326 7.28231 6.21106 7.14769 6.65887C6.94156 7.34716 6.72282 8.0313 6.51248 8.71545C6.12546 9.95935 7.13928 10.7969 8.22462 10.7223C9.41092 10.6394 10.2186 10.0008 10.7907 9.03057C11.2661 8.22618 11.468 7.34301 11.5185 6.42252C11.5563 5.75911 11.4975 5.11228 11.2577 4.48204C10.8664 3.46204 10.1639 2.71569 9.16272 2.28448C7.5894 1.60862 5.99505 1.64179 4.46801 2.40057C3.09241 3.08057 2.28051 4.21667 2.06176 5.73009C1.91031 6.7874 2.1543 7.76179 2.81476 8.62008C2.9031 8.73618 2.92834 8.85643 2.89048 8.99326C2.79793 9.34569 2.70539 9.69813 2.60863 10.0506C2.54132 10.2952 2.44036 10.3408 2.20058 10.2289C1.64108 9.97179 1.2162 9.55716 0.883872 9.05545C0.122454 7.89862 -0.159397 6.63813 0.0888 5.28228C0.55154 2.73643 2.11224 1.14838 4.57318 0.389597C6.09601 -0.0789393 7.65671 -0.128695 9.20479 0.261061C10.8875 0.683988 12.2589 1.5796 13.1801 3.05569C13.7817 4.02179 14.0467 5.08326 14.0005 6.21935C13.9542 7.35545 13.6934 8.43765 13.1339 9.43692C12.3304 10.8674 11.1525 11.8501 9.51608 12.2274C8.63267 12.4347 7.74926 12.4389 6.8995 12.0574C6.49144 11.875 6.12546 11.6345 5.87306 11.2572C5.86044 11.2406 5.85202 11.2157 5.80995 11.2157C5.66272 11.7506 5.49024 12.2813 5.36825 12.8245C5.0275 14.3296 4.27029 15.6398 3.39108 16.892C3.36584 16.9294 3.3364 16.9625 3.31116 16.9957C3.26488 16.9998 3.23123 16.9998 3.19757 16.9998Z" fill="white"/>
</svg>
