<svg width="173" height="66" viewBox="0 0 173 66" fill="none" xmlns="http://www.w3.org/2000/svg">
<path d="M152.903 36.1877C152.489 36.1877 152.281 36.1877 151.867 36.1877C130.113 36.1877 25.4839 36.1877 3.72938 36.1877C3.31501 36.1877 2.69345 36.1877 2.27908 35.9814C0.621595 35.7751 -0.207147 34.3306 3.81991e-05 32.6798C0.207224 31.2354 1.45034 30.2036 2.90064 29.9973C3.31501 29.9973 3.52219 29.9973 3.93657 29.9973C25.6911 29.9973 130.113 29.9973 151.867 29.9973C152.281 29.9973 152.489 29.9973 153.11 29.9973C152.696 29.7909 152.489 29.5846 152.074 29.3782C141.922 23.6004 133.842 15.7592 127.212 6.26711C126.798 5.64807 126.383 5.02902 126.176 4.40997C125.762 2.96553 126.59 1.52108 127.834 0.902035C129.284 0.282987 130.734 0.902035 131.77 2.14013C133.842 4.82267 135.707 7.50521 137.986 9.9814C145.859 18.8544 155.182 25.4576 166.37 28.9655C167.613 29.3782 168.856 29.5846 170.099 29.9973C171.757 30.41 172.586 31.6481 172.586 33.0925C172.586 34.537 171.757 35.7751 170.099 36.1877C153.732 40.3147 141.508 50.2195 131.977 63.8385C131.149 65.0766 129.905 65.6957 128.455 65.4893C126.383 65.0766 125.347 62.6004 126.59 60.7433C128.248 58.2671 130.113 55.7909 131.977 53.3147C137.778 46.5052 144.408 40.9338 152.074 36.3941C152.696 36.6004 152.903 36.6004 152.903 36.1877C152.903 36.3941 152.903 36.3941 152.903 36.1877Z" fill="white"/>
</svg>
