<svg width="33" height="33" viewBox="0 0 33 33" fill="none" xmlns="http://www.w3.org/2000/svg">
<path fill-rule="evenodd" clip-rule="evenodd" d="M10.2804 9.5944V8.92773C10.2804 7.33644 10.9126 5.81031 12.0378 4.68509C13.163 3.55988 14.6891 2.92773 16.2804 2.92773C17.8717 2.92773 19.3979 3.55988 20.5231 4.68509C21.6483 5.81031 22.2804 7.33644 22.2804 8.92773V9.5944H25.6138C26.3498 9.5944 26.9471 10.1931 26.9471 10.9371V26.9384C26.9471 28.4051 25.7538 29.5944 24.2884 29.5944H8.27244C7.56778 29.5944 6.89194 29.3147 6.39342 28.8166C5.8949 28.3186 5.61448 27.6431 5.61377 26.9384V10.9384C5.61377 10.1944 6.2071 9.5944 6.9471 9.5944H10.2804ZM12.2804 9.5944H20.2804V8.92773C20.2804 7.86687 19.859 6.84945 19.1089 6.09931C18.3587 5.34916 17.3413 4.92773 16.2804 4.92773C15.2196 4.92773 14.2022 5.34916 13.452 6.09931C12.7019 6.84945 12.2804 7.86687 12.2804 8.92773V9.5944ZM10.2804 9.5944V14.9277H12.2804V9.5944H10.2804ZM20.2804 9.5944V14.9277H22.2804V9.5944H20.2804Z" fill="white"/>
</svg>
