<svg width="18" height="18" viewBox="0 0 18 18" fill="none" xmlns="http://www.w3.org/2000/svg">
<g clip-path="url(#clip0_103_7)">
<path d="M10.243 16.7408C10.2431 16.9042 10.211 17.0659 10.1486 17.2169C10.0862 17.3678 9.99464 17.505 9.87921 17.6205C9.76377 17.7361 9.62671 17.8278 9.47583 17.8904C9.32496 17.953 9.16324 17.9853 8.99989 17.9854C8.83655 17.9854 8.67479 17.9534 8.52384 17.8909C8.3729 17.8285 8.23573 17.737 8.12016 17.6215C8.0046 17.5061 7.9129 17.369 7.8503 17.2182C7.78771 17.0673 7.75545 16.9056 7.75535 16.7422C7.75516 16.4123 7.88603 16.0959 8.11916 15.8625C8.35229 15.6291 8.66859 15.4979 8.99848 15.4977C9.32836 15.4975 9.64481 15.6284 9.87821 15.8615C10.1116 16.0946 10.2428 16.4109 10.243 16.7408ZM5.75573 16.7408C5.75582 16.9042 5.72373 17.066 5.66129 17.217C5.59885 17.368 5.50728 17.5052 5.39181 17.6208C5.27635 17.7364 5.13924 17.8281 4.98832 17.8907C4.83741 17.9533 4.67564 17.9856 4.51225 17.9857C4.34886 17.9858 4.18705 17.9537 4.03606 17.8913C3.88508 17.8288 3.74787 17.7373 3.63227 17.6218C3.51667 17.5063 3.42494 17.3692 3.36233 17.2183C3.29972 17.0674 3.26744 16.9056 3.26735 16.7422C3.26716 16.4122 3.39807 16.0957 3.63126 15.8622C3.86446 15.6288 4.18085 15.4975 4.51083 15.4973C4.84081 15.4971 5.15735 15.628 5.39081 15.8612C5.62427 16.0944 5.75554 16.4108 5.75573 16.7408ZM14.731 16.7408C14.7311 16.9042 14.699 17.0659 14.6366 17.2169C14.5742 17.3678 14.4826 17.505 14.3672 17.6205C14.2518 17.7361 14.1147 17.8278 13.9638 17.8904C13.813 17.953 13.6512 17.9853 13.4879 17.9854C13.3246 17.9854 13.1628 17.9534 13.0118 17.8909C12.8609 17.8285 12.7237 17.737 12.6082 17.6215C12.4926 17.5061 12.4009 17.369 12.3383 17.2182C12.2757 17.0673 12.2434 16.9056 12.2434 16.7422C12.2432 16.4123 12.374 16.0959 12.6072 15.8625C12.8403 15.6291 13.1566 15.4979 13.4865 15.4977C13.8164 15.4975 14.1328 15.6284 14.3662 15.8615C14.5996 16.0946 14.7308 16.4109 14.731 16.7408ZM5.7961 13.2027L2.13331 14.1186L2.91602 10.9877C2.1411 9.96631 1.68848 8.73877 1.68848 7.41843C1.68848 3.86543 4.96239 0.985352 8.99989 0.985352C13.0374 0.985352 16.3113 3.86543 16.3113 7.41843C16.3113 10.9714 13.0374 13.8522 8.99989 13.8522C7.89895 13.8554 6.80888 13.6344 5.7961 13.2027ZM6.92589 6.88435H6.84443C6.80066 6.88435 6.75731 6.89299 6.71687 6.90976C6.67643 6.92654 6.6397 6.95112 6.60878 6.98211C6.57785 7.0131 6.55335 7.04988 6.53666 7.09036C6.51997 7.13083 6.51143 7.1742 6.51152 7.21798V10.1406C6.51152 10.3247 6.66027 10.4742 6.84443 10.4742H11.1554C11.3395 10.4742 11.4883 10.3254 11.4883 10.1413V7.21727C11.4883 7.12897 11.4532 7.04429 11.3908 6.98186C11.3283 6.91943 11.2436 6.88435 11.1554 6.88435H11.0739V6.0556C11.0736 5.78333 11.0197 5.51379 10.9153 5.26235C10.8108 5.01091 10.6579 4.78251 10.4651 4.59018C10.2724 4.39786 10.0437 4.24538 9.79205 4.14144C9.5404 4.03751 9.27074 3.98416 8.99848 3.98443C8.44892 3.98462 7.92193 4.20307 7.5334 4.59173C7.14487 4.9804 6.9266 5.50746 6.9266 6.05702L6.92589 6.88435ZM10.2444 6.88435H7.75535V6.05702C7.75535 5.72694 7.88647 5.41039 8.11987 5.17699C8.35327 4.9436 8.66982 4.81248 8.99989 4.81248C9.32997 4.81248 9.64652 4.9436 9.87992 5.17699C10.1133 5.41039 10.2444 5.72694 10.2444 6.05702V6.88577V6.88435Z" fill="white"/>
</g>
<defs>
<clipPath id="clip0_103_7">
<rect width="17" height="17" fill="white" transform="translate(0.5 0.985352)"/>
</clipPath>
</defs>
</svg>
