<svg width="33" height="33" viewBox="0 0 33 33" fill="none" xmlns="http://www.w3.org/2000/svg">
<path fill-rule="evenodd" clip-rule="evenodd" d="M16.938 1.90921C17.888 1.04588 19.2847 0.981213 20.2687 1.83788C20.9119 2.40184 21.5357 2.98774 22.1387 3.59455C22.7455 4.19757 23.3314 4.82127 23.8953 5.46455C24.7527 6.44788 24.688 7.84455 23.8247 8.79521C22.899 9.80784 21.9494 10.7983 20.9767 11.7659C20.0094 12.7388 19.0191 13.6886 18.0067 14.6145C17.056 15.4779 15.66 15.5425 14.6753 14.6852C14.0321 14.1213 13.4084 13.5354 12.8053 12.9285C12.1988 12.3257 11.6131 11.7023 11.0493 11.0592C10.192 10.0752 10.256 8.67921 11.1193 7.72788C12.045 6.71525 12.9946 5.72475 13.9673 4.75721C14.9349 3.7845 15.9254 2.8349 16.938 1.90921ZM8.63067 9.99588C8.74442 11.023 9.18089 11.9877 9.87734 12.7512C10.2907 13.2112 10.7907 13.7419 11.392 14.3425C11.8196 14.771 12.2562 15.1904 12.7013 15.6005C11.2293 15.6052 9.75727 15.617 8.28534 15.6359C8.02267 15.6392 7.75601 15.7192 7.62934 15.9492C7.52329 16.1476 7.46917 16.3696 7.47201 16.5945C7.47201 16.8745 7.54534 17.0872 7.62934 17.2399C7.75601 17.4692 8.02267 17.5492 8.28534 17.5532C9.19401 17.5665 11.6853 17.5945 16.1387 17.5945C20.592 17.5945 23.0833 17.5665 23.992 17.5532C24.2547 17.5492 24.5213 17.4692 24.648 17.2399C24.7327 17.0872 24.8053 16.8745 24.8053 16.5945C24.8053 16.3145 24.732 16.1019 24.648 15.9492C24.5213 15.7192 24.2547 15.6392 23.992 15.6359C23.38 15.6272 22.05 15.6112 19.8867 15.6025C20.7363 14.8101 21.5713 14.0022 22.3913 13.1792C23.2709 12.3027 24.1328 11.4088 24.9767 10.4979C25.1119 10.3509 25.2388 10.1964 25.3567 10.0352C25.9869 10.0517 26.5424 10.0685 27.0233 10.0859C28.9373 10.1525 30.7253 11.4125 30.972 13.5105C31.0693 14.3332 31.1387 15.3552 31.1387 16.5945C31.1387 17.8339 31.0693 18.8559 30.972 19.6785C30.7253 21.7772 28.9373 23.0365 27.024 23.1032C24.8907 23.1779 21.338 23.2612 16.1387 23.2612C10.9387 23.2612 7.38734 23.1779 5.25334 23.1032C3.34001 23.0365 1.55201 21.7765 1.30467 19.6785C1.20801 18.8559 1.13867 17.8345 1.13867 16.5945C1.13867 15.3545 1.20801 14.3332 1.30534 13.5105C1.55201 11.4119 3.34001 10.1525 5.25334 10.0859C6.13334 10.0552 7.25334 10.0232 8.63067 9.99588ZM1.16534 23.0525C2.23534 24.1259 3.72401 24.7172 5.19467 24.7685C7.34934 24.8439 10.9213 24.9279 16.138 24.9279C21.3553 24.9279 24.9267 24.8439 27.0813 24.7685C28.5527 24.7172 30.0413 24.1265 31.1113 23.0519C31.0795 24.4255 30.9984 25.7975 30.868 27.1652C30.652 29.3572 28.8773 30.9005 26.7527 31.0165C24.5853 31.1352 21.1133 31.2612 16.138 31.2612C11.1627 31.2612 7.69134 31.1352 5.52401 31.0165C3.39934 30.9005 1.62401 29.3565 1.40801 27.1659C1.27786 25.7981 1.19692 24.4261 1.16534 23.0525Z" fill="white"/>
</svg>
