<svg width="16" height="16" viewBox="0 0 16 16" fill="none" xmlns="http://www.w3.org/2000/svg">
<path d="M0.5 8.84267C0.5 8.5788 0.5 8.31494 0.5 8.05107C0.507328 8.01076 0.521983 7.96678 0.525647 7.92647C0.609917 6.76107 0.943332 5.67262 1.54787 4.67946C2.73864 2.72613 4.45701 1.52774 6.71031 1.10629C6.99243 1.04765 7.27821 1.022 7.564 0.985352C7.85711 0.985352 8.15022 0.985352 8.44333 0.985352C8.69614 1.01833 8.94528 1.04032 9.19809 1.08064C10.7553 1.34084 12.1146 2.00783 13.2357 3.11826C14.9358 4.80407 15.6832 6.86002 15.467 9.24213C15.3241 10.8217 14.7159 12.2326 13.6534 13.4127C11.8691 15.399 9.63043 16.2346 6.97777 15.9157C5.90791 15.7875 4.91866 15.41 4.00635 14.8273C3.91475 14.7686 3.83781 14.7613 3.73522 14.7943C2.87421 15.0728 2.00953 15.3513 1.14485 15.6262C1.10088 15.6409 1.05691 15.6482 0.99829 15.6628C1.01661 15.6042 1.03127 15.5602 1.04592 15.5199C1.32071 14.7027 1.59184 13.8818 1.8703 13.0682C1.91426 12.9399 1.90694 12.8483 1.82633 12.7347C1.20347 11.8405 0.80044 10.8546 0.613581 9.78086C0.56595 9.47301 0.540303 9.15784 0.5 8.84267ZM10.4292 12.72C10.6746 12.6724 10.8872 12.6577 11.0813 12.5881C12.1402 12.2179 12.4956 11.7122 12.5249 10.7227C12.5286 10.5725 12.47 10.4735 12.3344 10.4075C11.7738 10.14 11.2206 9.86881 10.66 9.60495C10.3742 9.47301 10.2057 9.52432 10.0151 9.78086C9.86859 9.97509 9.7257 10.1767 9.57548 10.3672C9.34465 10.6604 9.18344 10.6971 8.83903 10.5578C7.58232 10.0447 6.65901 9.16151 5.96287 8.01076C5.87127 7.8605 5.8786 7.72491 5.99218 7.59297C6.10943 7.45738 6.22301 7.31445 6.35125 7.18985C6.6297 6.91132 6.73962 6.61081 6.50879 6.248C6.50513 6.24433 6.50513 6.237 6.50513 6.23334C6.28163 5.70927 6.0618 5.18154 5.83097 4.66114C5.79433 4.58051 5.71006 4.48523 5.63312 4.46691C5.23376 4.37162 4.83073 4.36796 4.48632 4.63182C4.17123 4.8737 3.95139 5.1962 3.81216 5.57001C3.53737 6.30663 3.62531 7.02493 3.92941 7.73224C4.15291 8.25264 4.47899 8.71074 4.81241 9.16151C5.37665 9.92378 6.01783 10.6091 6.76893 11.1918C7.57499 11.8185 8.49463 12.2143 9.46189 12.5038C9.78798 12.6027 10.1251 12.6541 10.4292 12.72Z" fill="white"/>
</svg>
