<svg width="16" height="17" viewBox="0 0 16 17" fill="none" xmlns="http://www.w3.org/2000/svg">
<path d="M0.508341 16.4853C0.863657 16.049 1.21564 15.611 1.57429 15.1782C3.13401 13.2871 4.6954 11.3977 6.25512 9.50651C6.28681 9.46653 6.31851 9.42656 6.3552 9.37963C4.40681 6.42471 2.46008 3.46979 0.5 0.499234C0.556717 0.494019 0.593416 0.488805 0.630116 0.488805C2.0347 0.488805 3.43761 0.490543 4.84219 0.485329C4.94228 0.485329 4.99233 0.523569 5.04571 0.603525C6.2768 2.47555 7.51123 4.3441 8.74399 6.21439C8.77402 6.26132 8.80738 6.30477 8.84742 6.36561C9.10265 6.05621 9.34953 5.75898 9.59642 5.46002C10.9226 3.85393 12.2504 2.24785 13.5716 0.638289C13.665 0.523569 13.7601 0.480114 13.9019 0.48359C14.2639 0.494019 14.6276 0.487067 15.0262 0.487067C13.1479 2.76235 11.2929 5.00983 9.43628 7.26078C9.46797 7.31118 9.49466 7.35464 9.52302 7.39809C11.4881 10.3791 13.4532 13.3601 15.4183 16.3411C15.4483 16.388 15.4733 16.4384 15.5 16.4871C14.0103 16.4871 12.5207 16.4871 11.0327 16.4871C11.016 16.4558 10.9993 16.4228 10.9793 16.3932C9.65981 14.3891 8.3403 12.3867 7.01913 10.386C6.99744 10.353 6.97075 10.3235 6.94072 10.287C6.89402 10.3426 6.85398 10.3878 6.81561 10.4347C5.74967 11.7244 4.68372 13.0142 3.61944 14.3039C3.02057 15.0305 2.42504 15.7588 1.82618 16.4853C1.38746 16.4853 0.947064 16.4853 0.508341 16.4853ZM2.29993 1.5265C2.34497 1.59777 2.37 1.64296 2.39835 1.68468C5.45941 6.24741 8.52046 10.8084 11.5798 15.3729C11.6416 15.465 11.7066 15.4963 11.8134 15.4963C12.3822 15.4911 12.9527 15.4946 13.5216 15.4928C13.57 15.4928 13.6167 15.4876 13.6901 15.4841C13.64 15.4059 13.6016 15.3468 13.5633 15.2895C10.5589 10.8102 7.55294 6.33432 4.55861 1.85154C4.39513 1.6082 4.23665 1.50217 3.9464 1.51607C3.40925 1.54562 2.86877 1.5265 2.29993 1.5265Z" fill="white"/>
</svg>
